
            <svg data-logo="logo" xmlns="http://www.w3.org/2000/svg" viewBox="0 0 203 42">
                <g id="logogram" transform="translate(0, 1)"><path d="M0.25 20C0.25 8.9543 9.2043 0 20.25 0H46.5C57.5458 0 66.5 8.9543 66.5 20V40H20.25C9.2043 40 0.25 31.0458 0.25 20Z" fill="#4845D2"/><path d="M46.5 7.5H20.25C13.3464 7.5 7.75 13.0964 7.75 20C7.75 26.9036 13.3464 32.5 20.25 32.5H46.5C53.4036 32.5 59 26.9036 59 20C59 13.0964 53.4036 7.5 46.5 7.5Z" fill="#A5B4FC"/><path d="M20.25 26.25C23.7018 26.25 26.5 23.4518 26.5 20C26.5 16.5482 23.7018 13.75 20.25 13.75C16.7982 13.75 14 16.5482 14 20C14 23.4518 16.7982 26.25 20.25 26.25Z" fill="#000000"/><path d="M17.75 18.75C18.4404 18.75 19 18.1904 19 17.5C19 16.8096 18.4404 16.25 17.75 16.25C17.0596 16.25 16.5 16.8096 16.5 17.5C16.5 18.1904 17.0596 18.75 17.75 18.75Z" fill="#ffffff"/><path d="M47.75 26.25C51.2018 26.25 54 23.4518 54 20C54 16.5482 51.2018 13.75 47.75 13.75C44.2982 13.75 41.5 16.5482 41.5 20C41.5 23.4518 44.2982 26.25 47.75 26.25Z" fill="#000000"/><path d="M45.25 18.75C45.9404 18.75 46.5 18.1904 46.5 17.5C46.5 16.8096 45.9404 16.25 45.25 16.25C44.5596 16.25 44 16.8096 44 17.5C44 18.1904 44.5596 18.75 45.25 18.75Z" fill="#ffffff"/></g>
                <g id="logotype" transform="translate(73, 0)"><path fill="#111111" d="M13.52 35L8.31 35L8.31 9.54L18.24 9.54Q21.14 9.54 23.18 10.64Q25.21 11.74 26.28 13.68Q27.35 15.62 27.35 18.13L27.35 18.13Q27.35 20.66 26.26 22.58Q25.17 24.51 23.12 25.59Q21.06 26.68 18.12 26.68L18.12 26.68L11.73 26.68L11.73 22.47L17.28 22.47Q18.89 22.47 19.92 21.92Q20.95 21.36 21.46 20.39Q21.96 19.41 21.96 18.13L21.96 18.13Q21.96 16.85 21.46 15.88Q20.95 14.90 19.91 14.37Q18.87 13.84 17.26 13.84L17.26 13.84L13.52 13.84L13.52 35ZM33.72 35L28.59 35L28.59 15.89L33.55 15.89L33.55 19.23L33.75 19.23Q34.28 17.45 35.52 16.54Q36.76 15.64 38.37 15.64L38.37 15.64Q38.76 15.64 39.21 15.68Q39.66 15.72 40.02 15.81L40.02 15.81L40.02 20.39Q39.68 20.27 39.03 20.20Q38.38 20.13 37.80 20.13L37.80 20.13Q36.64 20.13 35.70 20.64Q34.76 21.14 34.24 22.04Q33.72 22.93 33.72 24.13L33.72 24.13L33.72 35ZM49.20 35.38L49.20 35.38Q46.28 35.38 44.16 34.18Q42.04 32.98 40.90 30.78Q39.77 28.57 39.77 25.55L39.77 25.55Q39.77 22.59 40.89 20.37Q42.02 18.15 44.09 16.90Q46.16 15.65 48.94 15.65L48.94 15.65Q50.82 15.65 52.45 16.25Q54.07 16.85 55.30 18.06Q56.53 19.26 57.22 21.07Q57.91 22.88 57.91 25.34L57.91 25.34L57.91 26.78L41.87 26.78L41.87 23.57L55.40 23.57L53.01 24.42Q53.01 22.93 52.56 21.83Q52.10 20.73 51.21 20.12Q50.31 19.52 48.98 19.52L48.98 19.52Q47.66 19.52 46.73 20.13Q45.80 20.75 45.32 21.80Q44.84 22.85 44.84 24.20L44.84 24.20L44.84 26.47Q44.84 28.13 45.40 29.26Q45.95 30.39 46.95 30.95Q47.95 31.51 49.28 31.51L49.28 31.51Q50.19 31.51 50.93 31.26Q51.66 31.00 52.18 30.50Q52.70 29.99 52.98 29.26L52.98 29.26L57.62 30.13Q57.16 31.70 56.02 32.89Q54.87 34.08 53.16 34.73Q51.44 35.38 49.20 35.38ZM64.27 42.14L59.14 42.14L59.14 15.89L64.18 15.89L64.18 19.11L64.42 19.11Q64.78 18.35 65.44 17.55Q66.10 16.75 67.18 16.20Q68.25 15.65 69.88 15.65L69.88 15.65Q71.99 15.65 73.76 16.75Q75.52 17.84 76.57 20.03Q77.62 22.22 77.62 25.48L77.62 25.48Q77.62 28.66 76.59 30.86Q75.57 33.05 73.81 34.19Q72.05 35.32 69.84 35.32L69.84 35.32Q68.29 35.32 67.21 34.79Q66.13 34.27 65.46 33.49Q64.78 32.71 64.42 31.94L64.42 31.94L64.27 31.94L64.27 42.14ZM68.27 31.21L68.27 31.21Q69.60 31.21 70.52 30.47Q71.43 29.74 71.90 28.44Q72.37 27.14 72.37 25.46L72.37 25.46Q72.37 23.79 71.90 22.51Q71.43 21.23 70.53 20.49Q69.62 19.76 68.27 19.76L68.27 19.76Q66.95 19.76 66.03 20.47Q65.11 21.17 64.63 22.45Q64.15 23.72 64.15 25.46L64.15 25.46Q64.15 27.19 64.64 28.48Q65.12 29.77 66.05 30.49Q66.97 31.21 68.27 31.21ZM89.80 35L79.05 35L79.05 9.54L89.15 9.54Q91.95 9.54 93.83 10.38Q95.70 11.23 96.63 12.70Q97.56 14.17 97.56 16.08L97.56 16.08Q97.56 17.59 96.96 18.70Q96.36 19.82 95.33 20.53Q94.30 21.24 92.98 21.55L92.98 21.55L92.98 21.81Q94.41 21.86 95.69 22.62Q96.96 23.38 97.76 24.74Q98.55 26.10 98.55 27.99L98.55 27.99Q98.55 29.99 97.56 31.58Q96.57 33.17 94.63 34.09Q92.69 35 89.80 35L89.80 35ZM84.26 23.81L84.26 30.71L88.78 30.71Q91.07 30.71 92.12 29.82Q93.18 28.93 93.18 27.50L93.18 27.50Q93.18 26.40 92.66 25.57Q92.14 24.75 91.18 24.28Q90.23 23.81 88.91 23.81L88.91 23.81L84.26 23.81ZM84.26 13.79L84.26 20.23L88.38 20.23Q89.49 20.23 90.38 19.83Q91.27 19.43 91.77 18.69Q92.28 17.94 92.28 16.92L92.28 16.92Q92.28 15.53 91.30 14.66Q90.31 13.79 88.48 13.79L88.48 13.79L84.26 13.79ZM108.36 35.38L108.36 35.38Q105.49 35.38 103.38 34.14Q101.28 32.90 100.15 30.68Q99.01 28.47 99.01 25.53L99.01 25.53Q99.01 22.56 100.15 20.35Q101.28 18.13 103.38 16.89Q105.49 15.65 108.36 15.65L108.36 15.65Q111.25 15.65 113.34 16.89Q115.43 18.13 116.57 20.35Q117.71 22.56 117.71 25.53L117.71 25.53Q117.71 28.47 116.57 30.68Q115.43 32.90 113.34 34.14Q111.25 35.38 108.36 35.38ZM108.36 31.34L108.36 31.34Q109.73 31.34 110.65 30.58Q111.57 29.82 112.03 28.50Q112.49 27.17 112.49 25.52L112.49 25.52Q112.49 23.82 112.03 22.51Q111.57 21.19 110.65 20.44Q109.73 19.69 108.36 19.69L108.36 19.69Q106.99 19.69 106.08 20.44Q105.16 21.19 104.70 22.51Q104.24 23.82 104.24 25.52L104.24 25.52Q104.24 27.17 104.70 28.50Q105.16 29.82 106.08 30.58Q106.99 31.34 108.36 31.34ZM117.16 15.89L128.49 15.89L128.49 19.81L117.16 19.81L117.16 15.89ZM119.79 29.86L119.79 11.35L124.92 11.35L124.92 29.41Q124.92 30.32 125.32 30.75Q125.72 31.19 126.66 31.19L126.66 31.19Q126.95 31.19 127.48 31.11Q128.01 31.04 128.28 30.97L128.28 30.97L129.02 34.81Q128.16 35.07 127.32 35.17Q126.47 35.27 125.70 35.27L125.70 35.27Q122.83 35.27 121.31 33.87Q119.79 32.47 119.79 29.86L119.79 29.86Z"/></g>
                
            </svg>
        